<svg xmlns="http://www.w3.org/2000/svg" width="22.391" height="22.391" viewBox="0 0 22.391 22.391">
  <path id="Subtraction_1" data-name="Subtraction 1" d="M-3799.712-82.609h-9.8a6.3,6.3,0,0,1-6.3-6.3v-9.8a6.3,6.3,0,0,1,6.3-6.3h9.8a6.3,6.3,0,0,1,6.3,6.3v9.8A6.3,6.3,0,0,1-3799.712-82.609Zm-4.973-16.849a5.659,5.659,0,0,0-5.652,5.653,5.659,5.659,0,0,0,5.652,5.653,5.659,5.659,0,0,0,5.653-5.653A5.659,5.659,0,0,0-3804.685-99.458Zm5.885-1.549a1.32,1.32,0,0,0-1.319,1.319,1.32,1.32,0,0,0,1.319,1.319,1.32,1.32,0,0,0,1.319-1.319A1.32,1.32,0,0,0-3798.8-101.007Zm-5.885,10.878a3.679,3.679,0,0,1-3.674-3.675,3.679,3.679,0,0,1,3.674-3.675,3.68,3.68,0,0,1,3.676,3.675A3.68,3.68,0,0,1-3804.685-90.129Z" transform="translate(3815.805 105)" fill="#86a5b5"/>
</svg>
