<svg xmlns="http://www.w3.org/2000/svg" width="22.041" height="22.041" viewBox="0 0 22.041 22.041">
  <path id="Icon_awesome-linkedin" data-name="Icon awesome-linkedin" d="M20.466,2.25H1.569A1.581,1.581,0,0,0,0,3.839V22.7a1.581,1.581,0,0,0,1.569,1.589h18.9A1.585,1.585,0,0,0,22.041,22.7V3.839A1.585,1.585,0,0,0,20.466,2.25ZM6.661,21.142H3.395V10.624H6.666V21.142ZM5.028,9.187A1.894,1.894,0,1,1,6.922,7.293,1.895,1.895,0,0,1,5.028,9.187ZM18.907,21.142H15.64V16.026c0-1.22-.025-2.79-1.7-2.79-1.7,0-1.963,1.328-1.963,2.7v5.205H8.713V10.624h3.134V12.06h.044a3.441,3.441,0,0,1,3.095-1.7c3.306,0,3.921,2.179,3.921,5.013Z" transform="translate(0 -2.25)" fill="#86a5b5"/>
</svg>
