<svg xmlns="http://www.w3.org/2000/svg" width="559.869" height="402.513" viewBox="0 0 559.869 402.513">
  <g id="Group_7" data-name="Group 7" transform="translate(-13.403 -36.844)">
    <g id="Group_9" data-name="Group 9">
      <path id="Path_4" data-name="Path 4" d="M493.422,422.144H57.017a31.816,31.816,0,0,1-31.724-31.722V53.188A31.816,31.816,0,0,1,57.017,21.466h436.4a31.816,31.816,0,0,1,31.722,31.722V390.422a31.816,31.816,0,0,1-31.722,31.722" transform="translate(18.119 15.378)" fill="#002b40"/>
      <rect id="Rectangle_7" data-name="Rectangle 7" width="469.636" height="372.14" rx="12.013" transform="translate(58.52 51.114)" fill="#001925"/>
      <path id="Path_5" data-name="Path 5" d="M472.966,386.669H54.585A13.32,13.32,0,0,1,41.266,373.35V49.368A13.32,13.32,0,0,1,54.585,36.049H472.966a13.318,13.318,0,0,1,13.319,13.319V373.35a13.318,13.318,0,0,1-13.319,13.319" transform="translate(29.562 25.825)" fill="#001925"/>
      <path id="Path_6" data-name="Path 6" d="M7.809,239.875a57.2,57.2,0,0,0,48.853,27.641H518.825a57.2,57.2,0,0,0,48.853-27.641Z" transform="translate(5.594 171.841)" fill="#002b40"/>
      <path id="Path_7" data-name="Path 7" d="M13.784,247.987H561.7a57.655,57.655,0,0,0,5.976-8.113H7.809a57.635,57.635,0,0,0,5.975,8.113" transform="translate(5.594 171.841)" fill="#1A1A1D"/>
      <rect id="Rectangle_8" data-name="Rectangle 8" width="124.427" height="69.633" transform="translate(105.815 270.288)" fill="#002b40"/>
      <rect id="Rectangle_9" data-name="Rectangle 9" width="46.807" height="6.448" transform="translate(227.521 92.039)" fill="#3B1C32"/>
      <rect id="Rectangle_10" data-name="Rectangle 10" width="28.574" height="6.448" transform="translate(166.999 92.039)" fill="#3B1C32"/>
      <rect id="Rectangle_11" data-name="Rectangle 11" width="56.613" height="6.448" transform="translate(101.752 92.039)" fill="#3B1C32"/>
      <rect id="Rectangle_12" data-name="Rectangle 12" width="12.277" height="6.448" transform="translate(204.519 92.039)" fill="#3B1C32"/>
      <rect id="Rectangle_13" data-name="Rectangle 13" width="28.476" height="6.448" transform="translate(286.239 92.039)" fill="#30c5cc"/>
      <rect id="Rectangle_14" data-name="Rectangle 14" width="17.56" height="6.448" transform="translate(227.521 110.875)" fill="#30c5cc"/>
      <rect id="Rectangle_15" data-name="Rectangle 15" width="17.56" height="6.448" transform="translate(252.064 110.875)" fill="#30c5cc"/>
      <rect id="Rectangle_16" data-name="Rectangle 16" width="28.574" height="6.448" transform="translate(137.889 110.875)" fill="#30c5cc"/>
      <rect id="Rectangle_17" data-name="Rectangle 17" width="28.035" height="6.448" transform="translate(101.752 110.875)" fill="#30c5cc"/>
      <rect id="Rectangle_18" data-name="Rectangle 18" width="47.056" height="6.448" transform="translate(174.305 110.875)" fill="#30c5cc"/>
      <rect id="Rectangle_19" data-name="Rectangle 19" width="34.892" height="9.613" transform="translate(106.488 243.221)" fill="#31d0a8"/>
      <rect id="Rectangle_20" data-name="Rectangle 20" width="34.892" height="9.613" transform="translate(195.35 243.221)" fill="#31d0a8"/>
      <rect id="Rectangle_21" data-name="Rectangle 21" width="34.892" height="9.613" transform="translate(150.919 243.221)" fill="#31d0a8"/>
      <path id="Path_28" data-name="Path 28" d="M0,0H113.839V42.409H0Z" transform="translate(223.719 84.894) rotate(-13.777)" fill="#AF1740"/>
      <rect id="Rectangle_23" data-name="Rectangle 23" width="83.852" height="5.864" transform="matrix(0.971, -0.238, 0.238, 0.971, 230.931, 89.048)" fill="#1A1A1D"/>
      <rect id="Rectangle_24" data-name="Rectangle 24" width="70.066" height="5.864" transform="matrix(0.971, -0.238, 0.238, 0.971, 233.413, 99.168)" fill="#1A1A1D"/>
      <rect id="Rectangle_25" data-name="Rectangle 25" width="33.243" height="5.864" transform="matrix(0.971, -0.238, 0.238, 0.971, 236.131, 110.255)" fill="#1A1A1D"/>
      <rect id="Rectangle_26" data-name="Rectangle 26" width="17.805" height="5.86" transform="translate(304.854 81.807) rotate(-13.775)" fill="#001925"/>
      <rect id="Rectangle_27" data-name="Rectangle 27" width="124.177" height="101.33" transform="translate(105.173 131.293)" fill="#002b40"/>
      <rect id="Rectangle_28" data-name="Rectangle 28" width="244.21" height="45.697" transform="translate(238.647 189.735)" fill="#002b40"/>
      <rect id="Rectangle_29" data-name="Rectangle 29" width="66.087" height="32.47" transform="translate(409.461 196.35)" fill="#30c5cc"/>
      <rect id="Rectangle_30" data-name="Rectangle 30" width="152.753" height="6.263" transform="translate(247.577 198.319)" fill="#75d5ef"/>
      <rect id="Rectangle_31" data-name="Rectangle 31" width="152.753" height="6.263" transform="translate(247.577 209.453)" fill="#75d5ef"/>
      <rect id="Rectangle_32" data-name="Rectangle 32" width="102.84" height="6.263" transform="translate(247.576 220.587)" fill="#75d5ef"/>
      <path id="Path_27" data-name="Path 27" d="M0,0H234.686V110.114H0Z" transform="translate(238.702 268.076)" fill="#002b40"/>
      <path id="Path_26" data-name="Path 26" d="M0,0H234.686V18.257H0Z" transform="translate(238.702 268.076)" fill="#AF1740"/>
      <rect id="Rectangle_35" data-name="Rectangle 35" width="135.515" height="9.294" transform="translate(244.395 312.293)" fill="#30c5cc"/>
      <rect id="Rectangle_36" data-name="Rectangle 36" width="121.528" height="9.294" transform="translate(244.395 328.819)" fill="#30c5cc"/>
      <rect id="Rectangle_37" data-name="Rectangle 37" width="81.964" height="9.294" transform="translate(244.395 345.341)" fill="#30c5cc"/>
      <rect id="Rectangle_38" data-name="Rectangle 38" width="48.848" height="9.294" transform="translate(244.395 297.071)" fill="#30c5cc"/>
      <rect id="Rectangle_39" data-name="Rectangle 39" width="70.881" height="70.881" transform="translate(393.109 296.618)" fill="#30c5cc"/>
      <path id="Path_8" data-name="Path 8" d="M265.817,201.462a8.969,8.969,0,0,0,1.78-5.365v-5.417a9.026,9.026,0,0,0-18.053,0V196.1a8.976,8.976,0,0,0,1.953,5.6,21.3,21.3,0,0,0-14.22,20.085h44.641s-1.728-16.149-16.1-20.317" transform="translate(169.98 130.132)" fill="#002b40"/>
      <rect id="Rectangle_40" data-name="Rectangle 40" width="82.191" height="82.191" transform="translate(393.482 87.642)" fill="#002b40"/>
      <path id="Path_12" data-name="Path 12" d="M180.3,231.411s-2.092,4.566-5.707,5.328-13.129,2.853-14.651,4.185-1.521,4.756-1.521,4.756h30.195s-.055-9.141-1.807-13.892c.721.005-6.509-.376-6.509-.376" transform="translate(113.489 165.778)" fill="#1a133a"/>
      <path id="Path_13" data-name="Path 13" d="M214.218,231.411s-2.092,4.566-5.707,5.328-13.129,2.853-14.651,4.185-1.521,4.756-1.521,4.756h30.195s-.055-9.141-1.807-13.892c.721.005-6.509-.376-6.509-.376" transform="translate(137.788 165.778)" fill="#1a133a"/>
      <path id="Path_14" data-name="Path 14" d="M206.657,63.929s-8.41-2.145-8.918-.807,13,5.335,13,5.335L222.9,102.185l-4.554,10.791,8.371,9.133s9.133-12.367,9.895-15.981-21.69-39.954-21.69-39.954-4.456-14.158-5.137-14.84-8.724-.254-10.545-.221,5.3,7.241,5.3,7.241Z" transform="translate(141.646 36.5)" fill="#e79673"/>
      <path id="Path_15" data-name="Path 15" d="M186.029,75.474s-4.008,5.626-4.864,11.618a39.128,39.128,0,0,0,.287,11.7l7.355-.244v6.881h14.618a76.784,76.784,0,0,1,.856-8.065c.572-2.854,4.566-8.276,4.566-8.276l-6.563-18.549-9.418-.856Z" transform="translate(129.555 49.921)" fill="#e79673"/>
      <path id="Path_16" data-name="Path 16" d="M187.826,87.337s2.568-5.994,5.707-3.709-.855,7.133-.855,7.133,2,8.276,5.422,9.418l3.424,1.141s8.846-8.276,10.274-10.559-2.283-15.41-4.852-18.264-13.7-2.569-14.555-4-3.709-4-6.563-2.854-2.283,10.559-2.283,10.559,3.529,3.038,3.762,5.23-1.4,5.094-1.4,5.094Z" transform="translate(131.455 46.824)"/>
      <path id="Path_17" data-name="Path 17" d="M187.594,94.321s14.588-2.13,22.958-2.321,21.69,4.186,21.69,4.186l9.692-10.377,12.346,11.6s-10.509,15.511-13.9,19.129-5.86,20.55-6.622,25.687-2.662,35.2-2.662,35.2-8.942,10.654-45.663-.953c-.379-.379,1.522-22.069,1.332-27.4s-4.947-23.4-5.9-27.776-16.122-13.134-16.122-13.134-1.873-10.659,5.127-15.791c.911.575,17.716,1.945,17.716,1.945" transform="translate(117.861 61.472)" fill="#002334"/>
      <path id="Path_18" data-name="Path 18" d="M166.482,71.5s-5.518,5.137-5.9,7.229,7.592,25.931,7.592,25.931l14.517,8.5-5.125,15.792s-15.842-11.029-18.125-14.265-6.279-35.577-6.279-35.577-5.137-6.469-5.518-8.182-1.577-7.312-.693-8.412,6.771-7.192,7.633-5.383,4.03,14.987,4.03,14.987,6.534-2.9,7.866-.621" transform="translate(105.046 40.689)" fill="#e79673"/>
      <path id="Path_19" data-name="Path 19" d="M181.95,138.891l-8.276,78-4.281,82.762,14.27.57s8.848-54.91,8.99-63.271-.144-18.348-.144-18.348l9.133-41.667h5.135l10.561,54.224,10.844,67.351,11.416.57s1.711-41.952,0-50.513-4.282-16.838-4.282-16.838l-5.135-56.22s4.566-19.977-2.569-35.673c-1.426-2.853-45.661-.951-45.661-.951" transform="translate(121.35 99.054)" fill="#1e8f94"/>
      <path id="Path_20" data-name="Path 20" d="M136.071,90.8H126.8V81.527h-5.786V90.8h-9.275V96.59h9.275v9.274H126.8V96.59h9.275Z" transform="translate(80.044 58.404)" fill="#AF1740"/>
      <path id="Path_21" data-name="Path 21" d="M81.671,140.736a14.5,14.5,0,1,1,14.5-14.5,14.521,14.521,0,0,1-14.5,14.5m0-21.434a6.933,6.933,0,1,0,6.932,6.932,6.941,6.941,0,0,0-6.932-6.932" transform="translate(48.116 80.044)" fill="#30c5cc"/>
      <path id="Path_24" data-name="Path 24" d="M249.271,84.869a14.5,14.5,0,1,1,14.5-14.5,14.521,14.521,0,0,1-14.5,14.5m0-21.434a6.933,6.933,0,1,0,6.932,6.932,6.941,6.941,0,0,0-6.932-6.932" transform="translate(168.181 40.022)" fill="#AF1740"/>
    </g>
  </g>
</svg>
