<svg xmlns="http://www.w3.org/2000/svg" width="25.189" height="20.458" viewBox="0 0 25.189 20.458">
  <path id="Icon_awesome-twitter" data-name="Icon awesome-twitter" d="M22.6,8.479c.016.224.016.448.016.671A14.588,14.588,0,0,1,7.928,23.839,14.589,14.589,0,0,1,0,21.522a10.68,10.68,0,0,0,1.247.064A10.339,10.339,0,0,0,7.656,19.38,5.172,5.172,0,0,1,2.829,15.8a6.51,6.51,0,0,0,.975.08A5.46,5.46,0,0,0,5.163,15.7a5.163,5.163,0,0,1-4.14-5.067v-.064a5.2,5.2,0,0,0,2.334.655,5.17,5.17,0,0,1-1.6-6.9A14.674,14.674,0,0,0,12.4,9.726a5.828,5.828,0,0,1-.128-1.183A5.167,5.167,0,0,1,21.21,5.011a10.164,10.164,0,0,0,3.277-1.247,5.149,5.149,0,0,1-2.27,2.845,10.349,10.349,0,0,0,2.973-.8A11.1,11.1,0,0,1,22.6,8.479Z" transform="translate(0 -3.381)" fill="#86a5b5"/>
</svg>
